<?xml version="1.0" encoding="UTF-8"?><!DOCTYPE svg PUBLIC "-//W3C//DTD SVG 1.1//EN" "http://www.w3.org/Graphics/SVG/1.1/DTD/svg11.dtd"><svg xmlns="http://www.w3.org/2000/svg"><symbol id="icon-fullscreen" viewBox="0,0,512,512">
    <path d="M-.827-1.301h513v512h-513v-512z" opacity=".052" visibility="hidden"/>
    <path d="M13.704 3.76h483.938c5.506 0 9.97 4.464 9.97 9.97v483.937c0 5.507-4.464 9.971-9.97 9.971H13.704c-5.506 0-9.97-4.464-9.97-9.971V13.73c0-5.506 4.464-9.97 9.97-9.97z" stroke-linejoin="round" stroke-width="5"/>
    <path d="M13.704 3.76h483.938c5.506 0 9.97 4.464 9.97 9.97v51.685H3.734V13.73c0-5.506 4.464-9.97 9.97-9.97z" stroke-linejoin="round" stroke-width="5"/>
    <g stroke-linejoin="round" stroke-width="5">
        <path d="M32.059 34.588c0-11.415 9.253-20.669 20.668-20.669s20.668 9.254 20.668 20.669c0 11.414-9.253 20.668-20.668 20.668s-20.668-9.254-20.668-20.668z"/>
        <path d="M93.382 34.588c0-11.415 9.253-20.669 20.668-20.669s20.668 9.254 20.668 20.669c0 11.414-9.253 20.668-20.668 20.668s-20.668-9.254-20.668-20.668z"/>
        <path d="M154.211 34.588c0-11.415 9.253-20.669 20.668-20.669s20.668 9.254 20.668 20.669c0 11.414-9.253 20.668-20.668 20.668s-20.668-9.254-20.668-20.668z"/>
    </g>
    <g stroke-linecap="square" stroke-width="5">
        <path d="M272 272l144-144-144 144z"/>
        <path d="M272 176v96"/>
        <path d="M368 272h-96"/>
        <g>
            <path d="M240 304L96 448l144-144z"/>
            <path d="M240 400v-96"/>
            <path d="M144 304h96"/>
        </g>
    </g>
</symbol><symbol id="icon-next" viewBox="0 0 492.004 492.004">
    <path d="M382.678 226.804L163.73 7.86C158.666 2.792 151.906 0 144.698 0s-13.968 2.792-19.032 7.86l-16.124 16.12c-10.492 10.504-10.492 27.576 0 38.064L293.398 245.9l-184.06 184.06c-5.064 5.068-7.86 11.824-7.86 19.028 0 7.212 2.796 13.968 7.86 19.04l16.124 16.116c5.068 5.068 11.824 7.86 19.032 7.86s13.968-2.792 19.032-7.86L382.678 265c5.076-5.084 7.864-11.872 7.848-19.088.016-7.244-2.772-14.028-7.848-19.108z"/>
</symbol><symbol id="icon-prev" viewBox="0 0 492 492">
    <path d="M198.608 246.104L382.664 62.04c5.068-5.056 7.856-11.816 7.856-19.024 0-7.212-2.788-13.968-7.856-19.032l-16.128-16.12C361.476 2.792 354.712 0 347.504 0s-13.964 2.792-19.028 7.864L109.328 227.008c-5.084 5.08-7.868 11.868-7.848 19.084-.02 7.248 2.76 14.028 7.848 19.112l218.944 218.932c5.064 5.072 11.82 7.864 19.032 7.864 7.208 0 13.964-2.792 19.032-7.864l16.124-16.12c10.492-10.492 10.492-27.572 0-38.06L198.608 246.104z"/>
</symbol></svg>